<mxfile host="app.diagrams.net" modified="2022-07-21T05:36:32.420Z" agent="5.0 (Windows NT 10.0; Win64; x64) AppleWebKit/537.36 (KHTML, like Gecko) Chrome/103.0.0.0 Safari/537.36" etag="qw0PJyMTrQ2l5WiWceSX" version="20.1.3" type="github" pages="2">
  <diagram id="C5RBs43oDa-KdzZeNtuy" name="Page-1">
    <mxGraphModel dx="1292" dy="696" grid="1" gridSize="10" guides="1" tooltips="1" connect="1" arrows="1" fold="1" page="1" pageScale="1" pageWidth="827" pageHeight="1169" math="0" shadow="0">
      <root>
        <mxCell id="WIyWlLk6GJQsqaUBKTNV-0" />
        <mxCell id="WIyWlLk6GJQsqaUBKTNV-1" parent="WIyWlLk6GJQsqaUBKTNV-0" />
        <mxCell id="bihctIGnhEin8kepYOOL-7" style="edgeStyle=orthogonalEdgeStyle;rounded=0;orthogonalLoop=1;jettySize=auto;html=1;exitX=0.5;exitY=1;exitDx=0;exitDy=0;entryX=0.5;entryY=0;entryDx=0;entryDy=0;" edge="1" parent="WIyWlLk6GJQsqaUBKTNV-1" source="WIyWlLk6GJQsqaUBKTNV-3" target="bihctIGnhEin8kepYOOL-5">
          <mxGeometry relative="1" as="geometry" />
        </mxCell>
        <mxCell id="WIyWlLk6GJQsqaUBKTNV-3" value="checkForApply" style="rounded=1;whiteSpace=wrap;html=1;fontSize=12;glass=0;strokeWidth=1;shadow=0;gradientColor=none;" parent="WIyWlLk6GJQsqaUBKTNV-1" vertex="1">
          <mxGeometry x="313" y="80" width="120" height="40" as="geometry" />
        </mxCell>
        <mxCell id="WIyWlLk6GJQsqaUBKTNV-12" value="notFound" style="rounded=1;whiteSpace=wrap;html=1;fontSize=12;glass=0;strokeWidth=1;shadow=0;" parent="WIyWlLk6GJQsqaUBKTNV-1" vertex="1">
          <mxGeometry x="483" y="210" width="120" height="40" as="geometry" />
        </mxCell>
        <mxCell id="bihctIGnhEin8kepYOOL-17" value="" style="edgeStyle=orthogonalEdgeStyle;rounded=0;orthogonalLoop=1;jettySize=auto;html=1;" edge="1" parent="WIyWlLk6GJQsqaUBKTNV-1" source="bihctIGnhEin8kepYOOL-5" target="bihctIGnhEin8kepYOOL-16">
          <mxGeometry relative="1" as="geometry" />
        </mxCell>
        <mxCell id="bihctIGnhEin8kepYOOL-5" value="用户查询" style="rounded=1;whiteSpace=wrap;html=1;" vertex="1" parent="WIyWlLk6GJQsqaUBKTNV-1">
          <mxGeometry x="313" y="150" width="120" height="40" as="geometry" />
        </mxCell>
        <mxCell id="bihctIGnhEin8kepYOOL-18" value="" style="edgeStyle=orthogonalEdgeStyle;rounded=0;orthogonalLoop=1;jettySize=auto;html=1;" edge="1" parent="WIyWlLk6GJQsqaUBKTNV-1" source="bihctIGnhEin8kepYOOL-16" target="WIyWlLk6GJQsqaUBKTNV-12">
          <mxGeometry relative="1" as="geometry" />
        </mxCell>
        <mxCell id="bihctIGnhEin8kepYOOL-20" value="" style="edgeStyle=orthogonalEdgeStyle;rounded=0;orthogonalLoop=1;jettySize=auto;html=1;" edge="1" parent="WIyWlLk6GJQsqaUBKTNV-1" source="bihctIGnhEin8kepYOOL-16" target="bihctIGnhEin8kepYOOL-19">
          <mxGeometry relative="1" as="geometry" />
        </mxCell>
        <mxCell id="bihctIGnhEin8kepYOOL-16" value="没找到用户" style="whiteSpace=wrap;html=1;rounded=1;" vertex="1" parent="WIyWlLk6GJQsqaUBKTNV-1">
          <mxGeometry x="313" y="210" width="120" height="40" as="geometry" />
        </mxCell>
        <mxCell id="bihctIGnhEin8kepYOOL-22" value="" style="edgeStyle=orthogonalEdgeStyle;rounded=0;orthogonalLoop=1;jettySize=auto;html=1;" edge="1" parent="WIyWlLk6GJQsqaUBKTNV-1" source="bihctIGnhEin8kepYOOL-19" target="bihctIGnhEin8kepYOOL-21">
          <mxGeometry relative="1" as="geometry" />
        </mxCell>
        <mxCell id="bihctIGnhEin8kepYOOL-28" value="" style="edgeStyle=orthogonalEdgeStyle;rounded=0;orthogonalLoop=1;jettySize=auto;html=1;" edge="1" parent="WIyWlLk6GJQsqaUBKTNV-1" source="bihctIGnhEin8kepYOOL-19" target="bihctIGnhEin8kepYOOL-27">
          <mxGeometry relative="1" as="geometry" />
        </mxCell>
        <mxCell id="bihctIGnhEin8kepYOOL-19" value="公免用户" style="whiteSpace=wrap;html=1;rounded=1;" vertex="1" parent="WIyWlLk6GJQsqaUBKTNV-1">
          <mxGeometry x="313" y="280" width="120" height="40" as="geometry" />
        </mxCell>
        <mxCell id="bihctIGnhEin8kepYOOL-21" value="freeSubscribers" style="whiteSpace=wrap;html=1;rounded=1;" vertex="1" parent="WIyWlLk6GJQsqaUBKTNV-1">
          <mxGeometry x="483" y="280" width="120" height="40" as="geometry" />
        </mxCell>
        <mxCell id="bihctIGnhEin8kepYOOL-26" value="" style="edgeStyle=orthogonalEdgeStyle;rounded=0;orthogonalLoop=1;jettySize=auto;html=1;" edge="1" parent="WIyWlLk6GJQsqaUBKTNV-1" source="bihctIGnhEin8kepYOOL-23" target="bihctIGnhEin8kepYOOL-25">
          <mxGeometry relative="1" as="geometry" />
        </mxCell>
        <mxCell id="bihctIGnhEin8kepYOOL-33" value="" style="edgeStyle=orthogonalEdgeStyle;rounded=0;orthogonalLoop=1;jettySize=auto;html=1;" edge="1" parent="WIyWlLk6GJQsqaUBKTNV-1" source="bihctIGnhEin8kepYOOL-23" target="bihctIGnhEin8kepYOOL-32">
          <mxGeometry relative="1" as="geometry" />
        </mxCell>
        <mxCell id="bihctIGnhEin8kepYOOL-23" value="业务类型错误" style="whiteSpace=wrap;html=1;rounded=1;" vertex="1" parent="WIyWlLk6GJQsqaUBKTNV-1">
          <mxGeometry x="313" y="420" width="120" height="40" as="geometry" />
        </mxCell>
        <mxCell id="bihctIGnhEin8kepYOOL-25" value="businessError" style="whiteSpace=wrap;html=1;rounded=1;" vertex="1" parent="WIyWlLk6GJQsqaUBKTNV-1">
          <mxGeometry x="483" y="420" width="120" height="40" as="geometry" />
        </mxCell>
        <mxCell id="bihctIGnhEin8kepYOOL-30" value="" style="edgeStyle=orthogonalEdgeStyle;rounded=0;orthogonalLoop=1;jettySize=auto;html=1;" edge="1" parent="WIyWlLk6GJQsqaUBKTNV-1" source="bihctIGnhEin8kepYOOL-27" target="bihctIGnhEin8kepYOOL-29">
          <mxGeometry relative="1" as="geometry" />
        </mxCell>
        <mxCell id="bihctIGnhEin8kepYOOL-31" style="edgeStyle=orthogonalEdgeStyle;rounded=0;orthogonalLoop=1;jettySize=auto;html=1;exitX=0.5;exitY=1;exitDx=0;exitDy=0;" edge="1" parent="WIyWlLk6GJQsqaUBKTNV-1" source="bihctIGnhEin8kepYOOL-27" target="bihctIGnhEin8kepYOOL-23">
          <mxGeometry relative="1" as="geometry" />
        </mxCell>
        <mxCell id="bihctIGnhEin8kepYOOL-27" value="金融分期用户" style="whiteSpace=wrap;html=1;rounded=1;" vertex="1" parent="WIyWlLk6GJQsqaUBKTNV-1">
          <mxGeometry x="313" y="350" width="120" height="40" as="geometry" />
        </mxCell>
        <mxCell id="bihctIGnhEin8kepYOOL-29" value="financeSubscribers" style="whiteSpace=wrap;html=1;rounded=1;" vertex="1" parent="WIyWlLk6GJQsqaUBKTNV-1">
          <mxGeometry x="483" y="350" width="120" height="40" as="geometry" />
        </mxCell>
        <mxCell id="bihctIGnhEin8kepYOOL-35" value="" style="edgeStyle=orthogonalEdgeStyle;rounded=0;orthogonalLoop=1;jettySize=auto;html=1;" edge="1" parent="WIyWlLk6GJQsqaUBKTNV-1" source="bihctIGnhEin8kepYOOL-32" target="bihctIGnhEin8kepYOOL-34">
          <mxGeometry relative="1" as="geometry" />
        </mxCell>
        <mxCell id="bihctIGnhEin8kepYOOL-37" value="" style="edgeStyle=orthogonalEdgeStyle;rounded=0;orthogonalLoop=1;jettySize=auto;html=1;" edge="1" parent="WIyWlLk6GJQsqaUBKTNV-1" source="bihctIGnhEin8kepYOOL-32" target="bihctIGnhEin8kepYOOL-36">
          <mxGeometry relative="1" as="geometry" />
        </mxCell>
        <mxCell id="bihctIGnhEin8kepYOOL-32" value="暂停用户" style="whiteSpace=wrap;html=1;rounded=1;" vertex="1" parent="WIyWlLk6GJQsqaUBKTNV-1">
          <mxGeometry x="313" y="490" width="120" height="40" as="geometry" />
        </mxCell>
        <mxCell id="bihctIGnhEin8kepYOOL-34" value="subscriberPauseError" style="whiteSpace=wrap;html=1;rounded=1;" vertex="1" parent="WIyWlLk6GJQsqaUBKTNV-1">
          <mxGeometry x="483" y="490" width="130" height="40" as="geometry" />
        </mxCell>
        <mxCell id="bihctIGnhEin8kepYOOL-39" value="" style="edgeStyle=orthogonalEdgeStyle;rounded=0;orthogonalLoop=1;jettySize=auto;html=1;" edge="1" parent="WIyWlLk6GJQsqaUBKTNV-1" source="bihctIGnhEin8kepYOOL-36" target="bihctIGnhEin8kepYOOL-38">
          <mxGeometry relative="1" as="geometry" />
        </mxCell>
        <mxCell id="bihctIGnhEin8kepYOOL-45" value="" style="edgeStyle=elbowEdgeStyle;rounded=0;orthogonalLoop=1;jettySize=auto;html=1;" edge="1" parent="WIyWlLk6GJQsqaUBKTNV-1" source="bihctIGnhEin8kepYOOL-36" target="bihctIGnhEin8kepYOOL-44">
          <mxGeometry relative="1" as="geometry" />
        </mxCell>
        <mxCell id="bihctIGnhEin8kepYOOL-47" value="" style="edgeStyle=elbowEdgeStyle;rounded=0;orthogonalLoop=1;jettySize=auto;html=1;" edge="1" parent="WIyWlLk6GJQsqaUBKTNV-1" source="bihctIGnhEin8kepYOOL-36" target="bihctIGnhEin8kepYOOL-44">
          <mxGeometry relative="1" as="geometry" />
        </mxCell>
        <mxCell id="bihctIGnhEin8kepYOOL-49" value="" style="edgeStyle=elbowEdgeStyle;rounded=0;orthogonalLoop=1;jettySize=auto;html=1;" edge="1" parent="WIyWlLk6GJQsqaUBKTNV-1" source="bihctIGnhEin8kepYOOL-36" target="bihctIGnhEin8kepYOOL-48">
          <mxGeometry relative="1" as="geometry" />
        </mxCell>
        <mxCell id="bihctIGnhEin8kepYOOL-36" value="基本销售品计费并且用户罚停" style="whiteSpace=wrap;html=1;rounded=1;" vertex="1" parent="WIyWlLk6GJQsqaUBKTNV-1">
          <mxGeometry x="313" y="564.5" width="120" height="40" as="geometry" />
        </mxCell>
        <mxCell id="bihctIGnhEin8kepYOOL-38" value="subscriberPunishStopError" style="whiteSpace=wrap;html=1;rounded=1;" vertex="1" parent="WIyWlLk6GJQsqaUBKTNV-1">
          <mxGeometry x="483" y="564.5" width="150" height="40" as="geometry" />
        </mxCell>
        <mxCell id="bihctIGnhEin8kepYOOL-44" value="validProtocolTypeSub" style="whiteSpace=wrap;html=1;rounded=1;" vertex="1" parent="WIyWlLk6GJQsqaUBKTNV-1">
          <mxGeometry x="233" y="650" width="120" height="40" as="geometry" />
        </mxCell>
        <mxCell id="bihctIGnhEin8kepYOOL-48" value="remainingSubscribers" style="whiteSpace=wrap;html=1;rounded=1;" vertex="1" parent="WIyWlLk6GJQsqaUBKTNV-1">
          <mxGeometry x="393" y="650" width="130" height="40" as="geometry" />
        </mxCell>
      </root>
    </mxGraphModel>
  </diagram>
  <diagram id="pbCoSAPbWc1D1-WWsID4" name="第 2 页">
    <mxGraphModel dx="1292" dy="696" grid="1" gridSize="10" guides="1" tooltips="1" connect="1" arrows="1" fold="1" page="1" pageScale="1" pageWidth="827" pageHeight="1169" math="0" shadow="0">
      <root>
        <mxCell id="0" />
        <mxCell id="1" parent="0" />
        <mxCell id="Q1inVlD0JyjREkFy3q5B-2" value="" style="edgeStyle=elbowEdgeStyle;rounded=1;orthogonalLoop=1;jettySize=auto;html=1;sketch=1;curved=1;" edge="1" parent="1" target="Q1inVlD0JyjREkFy3q5B-4">
          <mxGeometry relative="1" as="geometry">
            <mxPoint x="320" y="160" as="sourcePoint" />
            <Array as="points">
              <mxPoint x="320" y="200" />
            </Array>
          </mxGeometry>
        </mxCell>
        <mxCell id="Q1inVlD0JyjREkFy3q5B-16" value="" style="edgeStyle=elbowEdgeStyle;rounded=1;orthogonalLoop=1;jettySize=auto;html=1;sketch=1;curved=1;" edge="1" parent="1" source="Q1inVlD0JyjREkFy3q5B-4" target="Q1inVlD0JyjREkFy3q5B-15">
          <mxGeometry relative="1" as="geometry" />
        </mxCell>
        <mxCell id="Q1inVlD0JyjREkFy3q5B-4" value="validProtocolTypeSub" style="whiteSpace=wrap;html=1;rounded=1;sketch=1;" vertex="1" parent="1">
          <mxGeometry x="260" y="215.5" width="120" height="40" as="geometry" />
        </mxCell>
        <mxCell id="Q1inVlD0JyjREkFy3q5B-7" value="checkPromotionOccupy" style="rounded=1;whiteSpace=wrap;html=1;sketch=1;" vertex="1" parent="1">
          <mxGeometry x="150" y="100" width="140" height="40" as="geometry" />
        </mxCell>
        <mxCell id="Q1inVlD0JyjREkFy3q5B-9" value="校验用户是否补偿进行中&lt;br&gt;强制释放不会释放补偿占用" style="text;html=1;strokeColor=none;fillColor=none;align=center;verticalAlign=middle;whiteSpace=wrap;rounded=1;sketch=1;" vertex="1" parent="1">
          <mxGeometry x="410" y="235.5" width="150" height="20" as="geometry" />
        </mxCell>
        <mxCell id="Q1inVlD0JyjREkFy3q5B-18" value="" style="edgeStyle=elbowEdgeStyle;rounded=1;orthogonalLoop=1;jettySize=auto;html=1;sketch=1;curved=1;" edge="1" parent="1" source="Q1inVlD0JyjREkFy3q5B-15" target="Q1inVlD0JyjREkFy3q5B-17">
          <mxGeometry relative="1" as="geometry" />
        </mxCell>
        <mxCell id="Q1inVlD0JyjREkFy3q5B-15" value="用户查询" style="whiteSpace=wrap;html=1;rounded=1;sketch=1;" vertex="1" parent="1">
          <mxGeometry x="260" y="290" width="120" height="40" as="geometry" />
        </mxCell>
        <mxCell id="Q1inVlD0JyjREkFy3q5B-20" value="" style="edgeStyle=elbowEdgeStyle;rounded=1;orthogonalLoop=1;jettySize=auto;html=1;sketch=1;curved=1;" edge="1" parent="1" source="Q1inVlD0JyjREkFy3q5B-17" target="Q1inVlD0JyjREkFy3q5B-19">
          <mxGeometry relative="1" as="geometry" />
        </mxCell>
        <mxCell id="Q1inVlD0JyjREkFy3q5B-22" value="" style="edgeStyle=elbowEdgeStyle;rounded=1;orthogonalLoop=1;jettySize=auto;html=1;sketch=1;curved=1;" edge="1" parent="1" source="Q1inVlD0JyjREkFy3q5B-17" target="Q1inVlD0JyjREkFy3q5B-21">
          <mxGeometry relative="1" as="geometry" />
        </mxCell>
        <mxCell id="Q1inVlD0JyjREkFy3q5B-17" value="查询补偿用户信息" style="whiteSpace=wrap;html=1;rounded=1;sketch=1;" vertex="1" parent="1">
          <mxGeometry x="260" y="360" width="120" height="40" as="geometry" />
        </mxCell>
        <mxCell id="Q1inVlD0JyjREkFy3q5B-24" value="" style="edgeStyle=elbowEdgeStyle;rounded=1;orthogonalLoop=1;jettySize=auto;html=1;sketch=1;curved=1;" edge="1" parent="1" source="Q1inVlD0JyjREkFy3q5B-19" target="Q1inVlD0JyjREkFy3q5B-23">
          <mxGeometry relative="1" as="geometry" />
        </mxCell>
        <mxCell id="Q1inVlD0JyjREkFy3q5B-19" value="统计 applyId 信息" style="whiteSpace=wrap;html=1;rounded=1;sketch=1;" vertex="1" parent="1">
          <mxGeometry x="440" y="360" width="120" height="40" as="geometry" />
        </mxCell>
        <mxCell id="Q1inVlD0JyjREkFy3q5B-28" value="" style="edgeStyle=elbowEdgeStyle;rounded=1;orthogonalLoop=1;jettySize=auto;html=1;sketch=1;curved=1;" edge="1" parent="1" source="Q1inVlD0JyjREkFy3q5B-21" target="Q1inVlD0JyjREkFy3q5B-27">
          <mxGeometry relative="1" as="geometry" />
        </mxCell>
        <mxCell id="Q1inVlD0JyjREkFy3q5B-21" value="根据用户转为 Map" style="whiteSpace=wrap;html=1;rounded=1;sketch=1;" vertex="1" parent="1">
          <mxGeometry x="260" y="430" width="120" height="40" as="geometry" />
        </mxCell>
        <mxCell id="Q1inVlD0JyjREkFy3q5B-29" style="edgeStyle=elbowEdgeStyle;rounded=1;orthogonalLoop=1;jettySize=auto;html=1;sketch=1;curved=1;" edge="1" parent="1" source="Q1inVlD0JyjREkFy3q5B-23" target="Q1inVlD0JyjREkFy3q5B-27">
          <mxGeometry relative="1" as="geometry" />
        </mxCell>
        <mxCell id="Q1inVlD0JyjREkFy3q5B-23" value="查询优惠实例" style="whiteSpace=wrap;html=1;rounded=1;sketch=1;" vertex="1" parent="1">
          <mxGeometry x="440" y="430" width="120" height="40" as="geometry" />
        </mxCell>
        <mxCell id="Q1inVlD0JyjREkFy3q5B-31" value="" style="edgeStyle=elbowEdgeStyle;rounded=1;orthogonalLoop=1;jettySize=auto;html=1;sketch=1;curved=1;" edge="1" parent="1" source="Q1inVlD0JyjREkFy3q5B-27" target="Q1inVlD0JyjREkFy3q5B-30">
          <mxGeometry relative="1" as="geometry" />
        </mxCell>
        <mxCell id="Q1inVlD0JyjREkFy3q5B-27" value="统计优惠被退掉的用户&amp;nbsp;promotionReleaseSubscribers&lt;br&gt;统计目前已经处于补偿中的用户&amp;nbsp;promotionSubscribers" style="whiteSpace=wrap;html=1;rounded=1;sketch=1;" vertex="1" parent="1">
          <mxGeometry x="260" y="500" width="300" height="40" as="geometry" />
        </mxCell>
        <mxCell id="Q1inVlD0JyjREkFy3q5B-30" value="返回 remainingSubscribers 为最终校验通过的用户" style="whiteSpace=wrap;html=1;rounded=1;sketch=1;" vertex="1" parent="1">
          <mxGeometry x="260" y="570" width="300" height="40" as="geometry" />
        </mxCell>
      </root>
    </mxGraphModel>
  </diagram>
</mxfile>
